<svg width="256" height="256" viewBox="0 0 256 256" fill="none" xmlns="http://www.w3.org/2000/svg">
<rect width="256" height="256" rx="30" fill="#E5E5E5"/>
<path fill-rule="evenodd" clip-rule="evenodd" d="M146.88 51.242L147.606 53.106C153.178 68.4245 151.844 85.7163 143.945 99.3981C139.515 107.071 132.674 113.013 124.689 116.913L128.568 131.39C131.184 141.154 125.389 151.191 115.625 153.808L42.6101 173.372C32.8459 175.989 22.8088 170.194 20.1926 160.429L0.628176 87.4141C-1.98803 77.6495 3.8064 67.6126 13.571 64.9963L56.4221 53.5142C56.9724 52.2933 57.5847 51.0963 58.2595 49.9276C67.4924 33.936 83.1668 28.5955 95.8997 24.2573L96.2063 24.1528C109.847 19.5656 121.055 13.5738 122.526 6.65645L122.627 6.06612C123.115 3.22457 123.497 0.995562 124.516 0.400103C128.577 -1.95146 132.54 6.47774 135.109 14.8247C139.372 28.6649 137.668 42.8529 128.418 59.1866C127.792 60.2702 127.977 61.8221 128.98 62.5819C130.176 63.6331 132.017 63.2517 132.8 61.8971L133.347 60.9488C134.285 59.3232 140.166 50.0748 141.118 49.3607C143.159 48.0103 146.04 48.951 146.88 51.242ZM52.6243 73.4819L18.3088 82.6767L37.8728 155.692L110.887 136.127L107.089 121.952C96.8762 123.045 86.3035 121.207 77.2483 115.979C62.1946 107.288 53.1599 90.2804 52.6243 73.4819ZM103.601 107.288C106.087 105.622 108.248 103.398 109.87 100.676C110.222 100.067 110.537 99.4475 110.817 98.8204C112.778 94.4306 113.007 89.6638 111.929 85.2487L108.925 67.9807C108.455 65.3614 105.616 63.7227 103.113 64.6254L92.7468 68.4256L86.6565 70.6572C81.5359 72.0356 77.1409 75.278 74.3254 80.1547C68.6941 89.9082 72.054 102.504 81.7844 108.122C88.7786 112.16 97.2493 111.545 103.601 107.288Z" transform="translate(51.9995 40.9998)" fill="#C4C4C4"/>
</svg>
