<svg width="165" height="190" viewBox="0 0 165 190" fill="none" xmlns="http://www.w3.org/2000/svg">
<path fill-rule="evenodd" clip-rule="evenodd" d="M160.497 55.9538L161.29 57.9892C167.379 74.7161 165.922 93.5979 157.29 108.538C152.449 116.917 144.974 123.405 136.249 127.663L140.488 143.471C143.347 154.134 137.015 165.094 126.345 167.951L46.5605 189.314C35.8905 192.171 24.9233 185.843 22.0644 175.181L0.686439 95.4518C-2.17245 84.7892 4.15958 73.8295 14.8295 70.9724L61.6537 58.4346C62.2553 57.1015 62.9237 55.7945 63.661 54.5183C73.7494 37.0562 90.8769 31.2248 104.79 26.4876L105.125 26.3736C120.031 21.3645 132.278 14.8219 133.885 7.26847L133.996 6.62662C134.529 3.52237 134.947 1.08731 136.06 0.436924C140.497 -2.13095 144.828 7.07315 147.635 16.1877C152.293 31.3004 150.431 46.7931 140.324 64.6288C139.64 65.8122 139.842 67.5067 140.938 68.3362C142.244 69.4842 144.257 69.0677 145.112 67.5884L145.71 66.553C146.735 64.778 153.161 54.6791 154.202 53.8993C156.432 52.4248 159.58 53.4521 160.497 55.9538ZM57.5028 80.2383L20.0058 90.2787L41.3842 170.008L121.168 148.644L117.017 133.165C105.858 134.359 94.3051 132.353 84.4101 126.644C67.9604 117.153 58.0878 98.5815 57.5028 80.2383ZM113.206 117.153C115.922 115.334 118.284 112.905 120.056 109.934C120.44 109.268 120.785 108.592 121.091 107.907C123.232 103.115 123.483 97.9114 122.308 93.0915C122.308 93.0901 122.307 93.0888 122.307 93.0874L119.023 74.2316C118.51 71.3714 115.408 69.5821 112.673 70.5678L101.346 74.717L94.6903 77.1542C89.0946 78.6593 84.2924 82.2 81.2157 87.5251C75.0629 98.1753 78.7338 111.93 89.3666 118.064C97.0092 122.474 106.265 121.802 113.206 117.153Z" fill="#E5E5E5"/>
</svg>
