<?xml version="1.0" standalone="no"?>
<!DOCTYPE svg PUBLIC "-//W3C//DTD SVG 20010904//EN"
 "http://www.w3.org/TR/2001/REC-SVG-20010904/DTD/svg10.dtd">
<svg version="1.0" xmlns="http://www.w3.org/2000/svg"
 width="700.000000pt" height="700.000000pt" viewBox="0 0 700.000000 700.000000"
 preserveAspectRatio="xMidYMid meet">
<metadata>
Created by potrace 1.11, written by Peter Selinger 2001-2013
</metadata>
<g transform="translate(0.000000,700.000000) scale(0.100000,-0.100000)"
fill="#000000" stroke="none">
<path d="M5467 6983 c-30 -19 -44 -56 -72 -198 -9 -44 -25 -99 -35 -123 -94
-211 -440 -425 -1005 -622 -404 -140 -592 -215 -760 -304 -320 -169 -548 -365
-727 -626 -36 -52 -85 -133 -109 -179 l-44 -84 -105 -28 c-58 -16 -172 -46
-255 -68 -236 -63 -346 -93 -715 -191 -409 -109 -428 -114 -505 -135 -33 -9
-85 -23 -115 -31 -279 -75 -458 -237 -546 -496 -12 -38 -21 -68 -19 -68 2 0
-1 -15 -6 -32 -9 -33 -13 -176 -6 -213 3 -11 7 -38 11 -60 4 -22 14 -62 22
-90 13 -43 129 -474 139 -515 2 -8 22 -85 45 -170 23 -85 55 -202 70 -260 15
-58 38 -141 50 -185 12 -44 23 -89 25 -99 3 -10 9 -33 15 -51 6 -18 13 -41 15
-51 5 -20 52 -198 80 -299 9 -33 18 -67 20 -75 1 -9 18 -70 35 -135 31 -113
49 -180 150 -552 22 -83 43 -161 45 -172 2 -11 11 -44 19 -73 9 -29 32 -111
51 -181 56 -205 111 -305 225 -413 83 -78 167 -128 282 -168 72 -24 95 -28
204 -31 92 -3 169 7 284 39 64 18 1449 388 1462 391 9 2 61 16 115 30 87 24
222 60 263 71 66 17 137 36 205 54 44 12 87 23 95 25 8 2 192 52 408 110 457
122 517 147 639 260 92 84 164 198 201 315 27 87 34 138 33 243 -1 92 -6 115
-124 552 l-53 199 113 66 c160 92 262 169 384 290 143 142 222 245 306 400 85
157 171 384 199 525 2 11 10 54 18 95 27 135 40 270 40 415 0 79 -11 252 -19
305 -24 150 -54 277 -97 410 -44 134 -56 160 -89 191 -65 63 -155 63 -211 0
-27 -31 -148 -211 -303 -452 -44 -69 -73 -85 -130 -75 -24 5 -40 17 -54 40
-25 41 -27 77 -4 119 9 18 17 34 18 37 0 3 13 26 29 53 102 172 244 558 272
742 3 22 7 42 9 45 2 3 6 33 10 65 3 33 8 76 11 95 7 48 7 290 0 332 -3 18 -8
51 -10 74 -34 325 -228 806 -364 903 -42 30 -100 36 -135 14z m-706 -2607 c37
-25 67 -72 75 -116 2 -8 8 -42 13 -75 11 -58 15 -82 26 -142 3 -16 14 -82 25
-148 26 -150 29 -164 35 -195 5 -24 12 -67 36 -202 60 -352 -111 -692 -431
-860 -62 -32 -171 -71 -235 -83 -112 -22 -290 -9 -412 29 -350 110 -583 458
-560 834 15 230 125 442 307 589 90 73 142 95 585 257 438 160 456 164 536
112z m-2195 -381 c22 -391 163 -793 388 -1105 300 -415 685 -667 1173 -766
164 -33 236 -39 453 -37 l186 1 12 -51 c16 -65 10 -42 78 -295 31 -117 55
-214 53 -217 -5 -4 -209 -59 -1094 -295 -495 -132 -796 -212 -935 -250 -63
-17 -122 -33 -130 -35 -59 -15 -237 -62 -415 -110 -254 -68 -356 -95 -364 -95
-4 0 -15 33 -25 73 -10 39 -27 103 -38 141 -11 38 -21 76 -23 85 -2 9 -26 99
-53 201 -28 102 -81 298 -117 435 -37 138 -75 279 -85 315 -25 91 -101 372
-105 390 -2 8 -11 40 -19 70 -21 80 -53 197 -93 345 -19 72 -48 180 -64 240
-38 140 -88 325 -93 345 -2 8 -20 75 -40 149 -20 74 -33 138 -29 142 4 4 67
24 138 42 72 19 234 63 360 97 127 34 237 63 245 65 8 1 35 9 60 16 25 7 50
13 55 15 6 1 46 12 90 24 44 12 89 23 100 26 11 2 83 22 160 43 77 22 147 39
155 38 9 -1 15 -16 16 -42z"/>
</g>
</svg>
