<svg width="512" height="157" viewBox="0 0 512 157" fill="none" xmlns="http://www.w3.org/2000/svg">
<path d="M26.4627 43.9973C26.4627 41.6111 25.8461 39.8147 24.6127 38.6082C23.4062 37.3749 21.1943 36.1014 17.9769 34.7876C12.1053 32.5623 7.88251 29.9616 5.30863 26.9855C2.73475 23.9827 1.44781 20.4436 1.44781 16.3683C1.44781 11.435 3.19054 7.48034 6.676 4.50429C10.1883 1.50143 14.6389 0 20.028 0C23.6207 0 26.8247 0.764121 29.6398 2.29236C32.455 3.79379 34.6133 5.92529 36.1148 8.68685C37.643 11.4484 38.4071 14.5853 38.4071 18.0976H26.6236C26.6236 15.3629 26.0337 13.285 24.854 11.864C23.7012 10.4162 22.0254 9.69227 19.8269 9.69227C17.7625 9.69227 16.1538 10.3089 15.0009 11.5422C13.848 12.7488 13.2716 14.3842 13.2716 16.4487C13.2716 18.0574 13.915 19.5186 15.202 20.8323C16.4889 22.1193 18.7679 23.4599 22.0389 24.854C27.7497 26.9185 31.892 29.4522 34.4659 32.455C37.0666 35.4579 38.3669 39.2785 38.3669 43.9168C38.3669 49.011 36.7448 52.9925 33.5007 55.8613C30.2565 58.7301 25.8461 60.1645 20.2693 60.1645C16.4889 60.1645 13.0437 59.3869 9.93357 57.8319C6.82347 56.2768 4.38364 54.0515 2.6141 51.1559C0.871366 48.2603 0 44.8418 0 40.9006H11.864C11.864 44.2788 12.5209 46.732 13.8346 48.2603C15.1484 49.7885 17.2933 50.5526 20.2693 50.5526C24.3982 50.5526 26.4627 48.3675 26.4627 43.9973Z" transform="translate(147.434 68.3975)" fill="#E5E5E5"/>
<path d="M85.9033 39.8549C85.6083 46.5309 83.7316 51.5849 80.2729 55.0167C76.8143 58.4485 71.9346 60.1645 65.634 60.1645C59.0116 60.1645 53.9308 57.9928 50.3918 53.6493C46.8795 49.2791 45.1233 43.0589 45.1233 34.9887V25.1356C45.1233 17.0922 46.9465 10.8988 50.5928 6.55535C54.2392 2.18512 59.3065 0 65.7948 0C72.1759 0 77.0153 1.78295 80.3131 5.34885C83.6377 8.91474 85.5279 14.0357 85.9837 20.7117H74.1197C74.0125 16.5828 73.369 13.7408 72.1893 12.1857C71.0364 10.6039 68.9049 9.81292 65.7948 9.81292C62.6311 9.81292 60.3924 10.9256 59.0786 13.1509C57.7649 15.3494 57.0678 18.9824 56.9873 24.0497V35.1093C56.9873 40.9274 57.6308 44.9223 58.9177 47.094C60.2315 49.2657 62.4702 50.3515 65.634 50.3515C68.7441 50.3515 70.889 49.6008 72.0687 48.0994C73.2484 46.5712 73.9186 43.823 74.0795 39.8549H85.9033Z" transform="translate(147.434 68.3975)" fill="#E5E5E5"/>
<path d="M134.405 35.3506C134.405 43.2063 132.541 49.3059 128.815 53.6493C125.115 57.9928 119.967 60.1645 113.371 60.1645C106.803 60.1645 101.641 58.0196 97.8879 53.7298C94.1343 49.4132 92.2307 43.3806 92.1771 35.6322V25.6182C92.1771 17.5748 94.0405 11.3009 97.7673 6.79665C101.494 2.26555 106.669 0 113.291 0C119.806 0 124.94 2.22533 128.694 6.676C132.448 11.0999 134.351 17.3201 134.405 25.3366V35.3506ZM122.541 25.5377C122.541 20.2559 121.79 16.3281 120.289 13.7542C118.787 11.1803 116.455 9.89335 113.291 9.89335C110.154 9.89335 107.835 11.1401 106.333 13.6335C104.832 16.1002 104.054 19.8671 104.001 24.9345V35.3506C104.001 40.4716 104.765 44.252 106.293 46.6918C107.821 49.1048 110.181 50.3113 113.371 50.3113C116.455 50.3113 118.747 49.1316 120.248 46.7722C121.75 44.386 122.514 40.6995 122.541 35.7126V25.5377Z" transform="translate(147.434 68.3975)" fill="#E5E5E5"/>
<path d="M160.626 37.9647H154.755V59.3601H142.931V0.804338H161.793C167.718 0.804338 172.289 2.34599 175.507 5.42928C178.751 8.48576 180.373 12.8426 180.373 18.4998C180.373 26.275 177.544 31.7177 171.887 34.8278L182.142 58.7971V59.3601H169.434L160.626 37.9647ZM154.755 28.1116H161.471C163.83 28.1116 165.6 27.3341 166.779 25.779C167.959 24.1972 168.549 22.0925 168.549 19.465C168.549 13.5933 166.257 10.6575 161.672 10.6575H154.755V28.1116Z" transform="translate(147.434 68.3975)" fill="#E5E5E5"/>
<path d="M228.191 39.8549C227.896 46.5309 226.019 51.5849 222.56 55.0167C219.102 58.4485 214.222 60.1645 207.921 60.1645C201.299 60.1645 196.218 57.9928 192.679 53.6493C189.167 49.2791 187.411 43.0589 187.411 34.9887V25.1356C187.411 17.0922 189.234 10.8988 192.88 6.55535C196.527 2.18512 201.594 0 208.082 0C214.463 0 219.303 1.78295 222.6 5.34885C225.925 8.91474 227.815 14.0357 228.271 20.7117H216.407C216.3 16.5828 215.656 13.7408 214.477 12.1857C213.324 10.6039 211.192 9.81292 208.082 9.81292C204.918 9.81292 202.68 10.9256 201.366 13.1509C200.052 15.3494 199.355 18.9824 199.275 24.0497V35.1093C199.275 40.9274 199.918 44.9223 201.205 47.094C202.519 49.2657 204.758 50.3515 207.921 50.3515C211.031 50.3515 213.176 49.6008 214.356 48.0994C215.536 46.5712 216.206 43.823 216.367 39.8549H228.191Z" transform="translate(147.434 68.3975)" fill="#E5E5E5"/>
<path d="M276.531 59.3601H264.748V34.305H247.294V59.3601H235.47V0.804338H247.294V24.4921H264.748V0.804338H276.531V59.3601Z" transform="translate(147.434 68.3975)" fill="#E5E5E5"/>
<path d="M316.306 34.0235H297.886V49.5472H319.684V59.3601H286.063V0.804338H319.604V10.6575H297.886V24.4921H316.306V34.0235Z" transform="translate(147.434 68.3975)" fill="#E5E5E5"/>
<path d="M326.521 59.3601V0.804338H342.004C348.841 0.804338 354.284 2.97605 358.332 7.31947C362.408 11.6629 364.486 17.615 364.566 25.1758V34.667C364.566 42.3618 362.528 48.4077 358.453 52.8048C354.405 57.175 348.814 59.3601 341.683 59.3601H326.521ZM338.345 10.6575V49.5472H341.884C345.825 49.5472 348.6 48.515 350.209 46.4505C351.817 44.3592 352.662 40.7665 352.742 35.6724V25.4975C352.742 20.028 351.978 16.2208 350.45 14.0759C348.922 11.9042 346.321 10.7647 342.648 10.6575H338.345Z" transform="translate(147.434 68.3975)" fill="#E5E5E5"/>
<path fill-rule="evenodd" clip-rule="evenodd" d="M132.185 46.1151L132.838 47.7926C137.853 61.5785 136.653 77.1403 129.544 89.4533C125.557 96.3589 119.4 101.706 112.214 105.216L115.705 118.244C118.06 127.032 112.845 136.064 104.057 138.419L38.3472 156.026C29.5596 158.381 20.5269 153.166 18.1724 144.378L0.565498 78.6681C-1.78948 69.8804 3.42585 60.8478 12.2134 58.4932L50.7779 48.1599C51.2735 47.0612 51.8238 45.9839 52.4312 44.9321C60.7398 30.5404 74.8463 25.7343 86.3057 21.8301L86.5811 21.7362C98.857 17.6079 108.944 12.2156 110.268 5.99025L110.358 5.4612C110.798 2.9026 111.142 0.89601 112.059 0.360121C115.713 -1.75633 119.28 5.8296 121.592 13.3413C125.429 25.7968 123.895 38.5653 115.57 53.2648C115.007 54.2401 115.174 55.6367 116.077 56.3204C117.152 57.2665 118.81 56.9232 119.514 55.7041L120.006 54.8507C120.851 53.3878 126.143 45.0647 127.001 44.422C128.837 43.2068 131.43 44.0534 132.185 46.1151ZM47.3594 66.1297L16.4766 74.4047L34.0836 140.115L99.7935 122.508L96.3751 109.75C87.1842 110.734 77.6695 109.08 69.5201 104.376C55.9722 96.5537 47.8414 81.2475 47.3594 66.1297ZM101.3 80.9557C101.222 83.9 100.461 86.8622 98.8785 89.6037C97.2969 92.2575 95.1446 94.3858 92.669 95.9192L92.898 96.7748C87.2213 100.405 79.773 100.867 73.6021 97.3046C64.8448 92.2487 61.8218 80.9127 66.8892 72.1351C69.4234 67.7464 73.3785 64.8284 77.9869 63.5878L92.7969 58.1596C95.0499 57.3472 97.6041 58.8218 98.0269 61.1791L100.732 76.7195C101.069 78.1024 101.264 79.5237 101.3 80.9557Z" fill="#E5E5E5"/>
</svg>
