<svg version="1" xmlns="http://www.w3.org/2000/svg" width="933.333" height="933.333" viewBox="0 0 700.000000 700.000000"><path d="M546.7 1.7c-3 1.9-4.4 5.6-7.2 19.8-.9 4.4-2.5 9.9-3.5 12.3-9.4 21.1-44 42.5-100.5 62.2-40.4 14-59.2 21.5-76 30.4-32 16.9-54.8 36.5-72.7 62.6-3.6 5.2-8.5 13.3-10.9 17.9l-4.4 8.4-10.5 2.8c-5.8 1.6-17.2 4.6-25.5 6.8-23.6 6.3-34.6 9.3-71.5 19.1-40.9 10.9-42.8 11.4-50.5 13.5-3.3.9-8.5 2.3-11.5 3.1-27.9 7.5-45.8 23.7-54.6 49.6-1.2 3.8-2.1 6.8-1.9 6.8.2 0-.1 1.5-.6 3.2-.9 3.3-1.3 17.6-.6 21.3.3 1.1.7 3.8 1.1 6 .4 2.2 1.4 6.2 2.2 9 1.3 4.3 12.9 47.4 13.9 51.5.2.8 2.2 8.5 4.5 17s5.5 20.2 7 26c1.5 5.8 3.8 14.1 5 18.5 1.2 4.4 2.3 8.9 2.5 9.9.3 1 .9 3.3 1.5 5.1.6 1.8 1.3 4.1 1.5 5.1.5 2 5.2 19.8 8 29.9.9 3.3 1.8 6.7 2 7.5.1.9 1.8 7 3.5 13.5 3.1 11.3 4.9 18 15 55.2 2.2 8.3 4.3 16.1 4.5 17.2.2 1.1 1.1 4.4 1.9 7.3.9 2.9 3.2 11.1 5.1 18.1 5.6 20.5 11.1 30.5 22.5 41.3 8.3 7.8 16.7 12.8 28.2 16.8 7.2 2.4 9.5 2.8 20.4 3.1 9.2.3 16.9-.7 28.4-3.9 6.4-1.8 144.9-38.8 146.2-39.1.9-.2 6.1-1.6 11.5-3 8.7-2.4 22.2-6 26.3-7.1 6.6-1.7 13.7-3.6 20.5-5.4 4.4-1.2 8.7-2.3 9.5-2.5.8-.2 19.2-5.2 40.8-11 45.7-12.2 51.7-14.7 63.9-26 9.2-8.4 16.4-19.8 20.1-31.5 2.7-8.7 3.4-13.8 3.3-24.3-.1-9.2-.6-11.5-12.4-55.2l-5.3-19.9 11.3-6.6c16-9.2 26.2-16.9 38.4-29 14.3-14.2 22.2-24.5 30.6-40 8.5-15.7 17.1-38.4 19.9-52.5.2-1.1 1-5.4 1.8-9.5 2.7-13.5 4-27 4-41.5 0-7.9-1.1-25.2-1.9-30.5-2.4-15-5.4-27.7-9.7-41-4.4-13.4-5.6-16-8.9-19.1-6.5-6.3-15.5-6.3-21.1 0-2.7 3.1-14.8 21.1-30.3 45.2-4.4 6.9-7.3 8.5-13 7.5-2.4-.5-4-1.7-5.4-4-2.5-4.1-2.7-7.7-.4-11.9.9-1.8 1.7-3.4 1.8-3.7 0-.3 1.3-2.6 2.9-5.3 10.2-17.2 24.4-55.8 27.2-74.2.3-2.2.7-4.2.9-4.5.2-.3.6-3.3 1-6.5.3-3.3.8-7.6 1.1-9.5.7-4.8.7-29 0-33.2-.3-1.8-.8-5.1-1-7.4-3.4-32.5-22.8-80.6-36.4-90.3-4.2-3-10-3.6-13.5-1.4zm-70.6 260.7c3.7 2.5 6.7 7.2 7.5 11.6.2.8.8 4.2 1.3 7.5 1.1 5.8 1.5 8.2 2.6 14.2.3 1.6 1.4 8.2 2.5 14.8 2.6 15 2.9 16.4 3.5 19.5.5 2.4 1.2 6.7 3.6 20.2 6 35.2-11.1 69.2-43.1 86-6.2 3.2-17.1 7.1-23.5 8.3-11.2 2.2-29 .9-41.2-2.9-35-11-58.3-45.8-56-83.4 1.5-23 12.5-44.2 30.7-58.9 9-7.3 14.2-9.5 58.5-25.7 43.8-16 45.6-16.4 53.6-11.2zm-219.5 38.1c2.2 39.1 16.3 79.3 38.8 110.5 30 41.5 68.5 66.7 117.3 76.6 16.4 3.3 23.6 3.9 45.3 3.7l18.6-.1 1.2 5.1c1.6 6.5 1 4.2 7.8 29.5 3.1 11.7 5.5 21.4 5.3 21.7-.5.4-20.9 5.9-109.4 29.5-49.5 13.2-79.6 21.2-93.5 25-6.3 1.7-12.2 3.3-13 3.5-5.9 1.5-23.7 6.2-41.5 11-25.4 6.8-35.6 9.5-36.4 9.5-.4 0-1.5-3.3-2.5-7.3-1-3.9-2.7-10.3-3.8-14.1-1.1-3.8-2.1-7.6-2.3-8.5-.2-.9-2.6-9.9-5.3-20.1-2.8-10.2-8.1-29.8-11.7-43.5-3.7-13.8-7.5-27.9-8.5-31.5-2.5-9.1-10.1-37.2-10.5-39-.2-.8-1.1-4-1.9-7-2.1-8-5.3-19.7-9.3-34.5-1.9-7.2-4.8-18-6.4-24-3.8-14-8.8-32.5-9.3-34.5-.2-.8-2-7.5-4-14.9s-3.3-13.8-2.9-14.2c.4-.4 6.7-2.4 13.8-4.2 7.2-1.9 23.4-6.3 36-9.7 12.7-3.4 23.7-6.3 24.5-6.5.8-.1 3.5-.9 6-1.6 2.5-.7 5-1.3 5.5-1.5.6-.1 4.6-1.2 9-2.4s8.9-2.3 10-2.6c1.1-.2 8.3-2.2 16-4.3 7.7-2.2 14.7-3.9 15.5-3.8.9.1 1.5 1.6 1.6 4.2z"/></svg>